<mxfile host="65bd71144e" pages="2">
    <diagram id="JCn65TBZ2moXvYVA5M32" name="Diagramm 1.0">
        <mxGraphModel dx="892" dy="627" grid="1" gridSize="10" guides="1" tooltips="1" connect="1" arrows="1" fold="1" page="1" pageScale="1" pageWidth="827" pageHeight="1169" math="0" shadow="0">
            <root>
                <mxCell id="0"/>
                <mxCell id="1" parent="0"/>
                <mxCell id="O8gKR3tFyJwNB1nPL_lT-1" value="Schüler" style="swimlane;fontStyle=1;align=center;verticalAlign=top;childLayout=stackLayout;horizontal=1;startSize=26;horizontalStack=0;resizeParent=1;resizeParentMax=0;resizeLast=0;collapsible=1;marginBottom=0;" parent="1" vertex="1">
                    <mxGeometry x="30" y="130" width="160" height="180" as="geometry"/>
                </mxCell>
                <mxCell id="O8gKR3tFyJwNB1nPL_lT-2" value="+ ID: ID&#10;+ Name: String&#10;+ Geburtsdatum: Date &#10;+ Klasse: KlasseID&#10;+ Buch: BuchID" style="text;strokeColor=none;fillColor=none;align=left;verticalAlign=top;spacingLeft=4;spacingRight=4;overflow=hidden;rotatable=0;points=[[0,0.5],[1,0.5]];portConstraint=eastwest;" parent="O8gKR3tFyJwNB1nPL_lT-1" vertex="1">
                    <mxGeometry y="26" width="160" height="154" as="geometry"/>
                </mxCell>
                <mxCell id="O8gKR3tFyJwNB1nPL_lT-18" value="Klasse" style="swimlane;fontStyle=1;align=center;verticalAlign=top;childLayout=stackLayout;horizontal=1;startSize=26;horizontalStack=0;resizeParent=1;resizeParentMax=0;resizeLast=0;collapsible=1;marginBottom=0;" parent="1" vertex="1">
                    <mxGeometry x="220" y="130" width="160" height="180" as="geometry"/>
                </mxCell>
                <mxCell id="O8gKR3tFyJwNB1nPL_lT-19" value="+ ID: ID&#10;+ Name: String&#10;+ Schüler: SchülerID[]&#10;+ MitarbeiterID: MitarbeiterID&#10;+ SchuleID: SchuleID" style="text;strokeColor=none;fillColor=none;align=left;verticalAlign=top;spacingLeft=4;spacingRight=4;overflow=hidden;rotatable=0;points=[[0,0.5],[1,0.5]];portConstraint=eastwest;" parent="O8gKR3tFyJwNB1nPL_lT-18" vertex="1">
                    <mxGeometry y="26" width="160" height="154" as="geometry"/>
                </mxCell>
                <mxCell id="O8gKR3tFyJwNB1nPL_lT-21" value="Buch" style="swimlane;fontStyle=1;align=center;verticalAlign=top;childLayout=stackLayout;horizontal=1;startSize=26;horizontalStack=0;resizeParent=1;resizeParentMax=0;resizeLast=0;collapsible=1;marginBottom=0;" parent="1" vertex="1">
                    <mxGeometry x="414" y="130" width="160" height="180" as="geometry"/>
                </mxCell>
                <mxCell id="O8gKR3tFyJwNB1nPL_lT-22" value="+ ID: ID&#10;+ Name: String&#10;+ Author: String&#10;+ Erscheinungsdatum: Date&#10;+ Genre: GenreID&#10;+ Bemerkung&#10;+ Schüler: SchülerID&#10;" style="text;strokeColor=none;fillColor=none;align=left;verticalAlign=top;spacingLeft=4;spacingRight=4;overflow=hidden;rotatable=0;points=[[0,0.5],[1,0.5]];portConstraint=eastwest;" parent="O8gKR3tFyJwNB1nPL_lT-21" vertex="1">
                    <mxGeometry y="26" width="160" height="154" as="geometry"/>
                </mxCell>
                <mxCell id="Oh7va8Yr2xT_aRUrp2eI-16" style="edgeStyle=none;html=1;entryX=-0.012;entryY=0.971;entryDx=0;entryDy=0;entryPerimeter=0;" parent="1" source="O8gKR3tFyJwNB1nPL_lT-27" target="O8gKR3tFyJwNB1nPL_lT-22" edge="1">
                    <mxGeometry relative="1" as="geometry"/>
                </mxCell>
                <mxCell id="O8gKR3tFyJwNB1nPL_lT-27" value="Genre" style="swimlane;fontStyle=1;align=center;verticalAlign=top;childLayout=stackLayout;horizontal=1;startSize=26;horizontalStack=0;resizeParent=1;resizeParentMax=0;resizeLast=0;collapsible=1;marginBottom=0;strokeColor=default;" parent="1" vertex="1">
                    <mxGeometry x="240" y="540" width="160" height="180" as="geometry"/>
                </mxCell>
                <mxCell id="O8gKR3tFyJwNB1nPL_lT-28" value="+ ID: ID&#10;+ Name: String&#10;" style="text;strokeColor=default;fillColor=none;align=left;verticalAlign=top;spacingLeft=4;spacingRight=4;overflow=hidden;rotatable=0;points=[[0,0.5],[1,0.5]];portConstraint=eastwest;" parent="O8gKR3tFyJwNB1nPL_lT-27" vertex="1">
                    <mxGeometry y="26" width="160" height="154" as="geometry"/>
                </mxCell>
                <mxCell id="Oh7va8Yr2xT_aRUrp2eI-1" value="Schule" style="swimlane;fontStyle=1;align=center;verticalAlign=top;childLayout=stackLayout;horizontal=1;startSize=26;horizontalStack=0;resizeParent=1;resizeParentMax=0;resizeLast=0;collapsible=1;marginBottom=0;strokeColor=default;" parent="1" vertex="1">
                    <mxGeometry x="30" y="330" width="160" height="180" as="geometry"/>
                </mxCell>
                <mxCell id="Oh7va8Yr2xT_aRUrp2eI-2" value="+ ID: ID&#10;+ Name: String&#10;+ Klassen: KlassenID[]" style="text;strokeColor=default;fillColor=none;align=left;verticalAlign=top;spacingLeft=4;spacingRight=4;overflow=hidden;rotatable=0;points=[[0,0.5],[1,0.5]];portConstraint=eastwest;" parent="Oh7va8Yr2xT_aRUrp2eI-1" vertex="1">
                    <mxGeometry y="26" width="160" height="154" as="geometry"/>
                </mxCell>
                <mxCell id="Oh7va8Yr2xT_aRUrp2eI-3" value="Mitarbeiter" style="swimlane;fontStyle=1;align=center;verticalAlign=top;childLayout=stackLayout;horizontal=1;startSize=26;horizontalStack=0;resizeParent=1;resizeParentMax=0;resizeLast=0;collapsible=1;marginBottom=0;" parent="1" vertex="1">
                    <mxGeometry x="414" y="330" width="160" height="180" as="geometry"/>
                </mxCell>
                <mxCell id="Oh7va8Yr2xT_aRUrp2eI-14" value="+ ID: ID&#10;+ Name: String&#10;+ Geburtsdatum: Date &#10;+ Klasse: KlasseID&#10;+ RolleID: RolleID" style="text;strokeColor=none;fillColor=none;align=left;verticalAlign=top;spacingLeft=4;spacingRight=4;overflow=hidden;rotatable=0;points=[[0,0.5],[1,0.5]];portConstraint=eastwest;" parent="Oh7va8Yr2xT_aRUrp2eI-3" vertex="1">
                    <mxGeometry y="26" width="160" height="154" as="geometry"/>
                </mxCell>
                <mxCell id="Oh7va8Yr2xT_aRUrp2eI-20" value="" style="edgeStyle=none;html=1;" parent="1" source="Oh7va8Yr2xT_aRUrp2eI-5" target="Oh7va8Yr2xT_aRUrp2eI-14" edge="1">
                    <mxGeometry relative="1" as="geometry"/>
                </mxCell>
                <mxCell id="Oh7va8Yr2xT_aRUrp2eI-5" value="Rollen" style="swimlane;fontStyle=1;align=center;verticalAlign=top;childLayout=stackLayout;horizontal=1;startSize=26;horizontalStack=0;resizeParent=1;resizeParentMax=0;resizeLast=0;collapsible=1;marginBottom=0;strokeColor=default;" parent="1" vertex="1">
                    <mxGeometry x="420" y="540" width="160" height="180" as="geometry"/>
                </mxCell>
                <mxCell id="Oh7va8Yr2xT_aRUrp2eI-6" value="+ ID: ID&#10;+ Name: String&#10;" style="text;strokeColor=default;fillColor=none;align=left;verticalAlign=top;spacingLeft=4;spacingRight=4;overflow=hidden;rotatable=0;points=[[0,0.5],[1,0.5]];portConstraint=eastwest;" parent="Oh7va8Yr2xT_aRUrp2eI-5" vertex="1">
                    <mxGeometry y="26" width="160" height="154" as="geometry"/>
                </mxCell>
                <mxCell id="Oh7va8Yr2xT_aRUrp2eI-8" style="edgeStyle=none;html=1;entryX=1.006;entryY=0.367;entryDx=0;entryDy=0;entryPerimeter=0;" parent="1" source="O8gKR3tFyJwNB1nPL_lT-19" target="O8gKR3tFyJwNB1nPL_lT-2" edge="1">
                    <mxGeometry relative="1" as="geometry"/>
                </mxCell>
                <mxCell id="Oh7va8Yr2xT_aRUrp2eI-11" style="edgeStyle=none;html=1;entryX=1;entryY=0;entryDx=0;entryDy=0;exitX=0.113;exitY=-0.019;exitDx=0;exitDy=0;exitPerimeter=0;" parent="1" source="O8gKR3tFyJwNB1nPL_lT-21" target="O8gKR3tFyJwNB1nPL_lT-1" edge="1">
                    <mxGeometry relative="1" as="geometry">
                        <Array as="points">
                            <mxPoint x="380" y="110"/>
                            <mxPoint x="210" y="110"/>
                        </Array>
                    </mxGeometry>
                </mxCell>
                <mxCell id="Oh7va8Yr2xT_aRUrp2eI-13" style="edgeStyle=none;html=1;entryX=0.55;entryY=0.997;entryDx=0;entryDy=0;entryPerimeter=0;" parent="1" target="O8gKR3tFyJwNB1nPL_lT-19" edge="1">
                    <mxGeometry relative="1" as="geometry">
                        <mxPoint x="410" y="420" as="sourcePoint"/>
                    </mxGeometry>
                </mxCell>
                <mxCell id="Oh7va8Yr2xT_aRUrp2eI-17" style="edgeStyle=none;html=1;entryX=0;entryY=0.5;entryDx=0;entryDy=0;" parent="1" source="Oh7va8Yr2xT_aRUrp2eI-2" target="Oh7va8Yr2xT_aRUrp2eI-14" edge="1">
                    <mxGeometry relative="1" as="geometry"/>
                </mxCell>
                <mxCell id="Oh7va8Yr2xT_aRUrp2eI-18" style="edgeStyle=none;html=1;entryX=0.156;entryY=1.023;entryDx=0;entryDy=0;entryPerimeter=0;exitX=1;exitY=0.5;exitDx=0;exitDy=0;" parent="1" source="Oh7va8Yr2xT_aRUrp2eI-2" target="O8gKR3tFyJwNB1nPL_lT-19" edge="1">
                    <mxGeometry relative="1" as="geometry"/>
                </mxCell>
                <mxCell id="4" value="" style="edgeStyle=none;html=1;entryX=0.006;entryY=0.922;entryDx=0;entryDy=0;entryPerimeter=0;" edge="1" parent="1" source="2" target="O8gKR3tFyJwNB1nPL_lT-2">
                    <mxGeometry relative="1" as="geometry">
                        <Array as="points">
                            <mxPoint x="10" y="520"/>
                            <mxPoint x="10" y="320"/>
                        </Array>
                    </mxGeometry>
                </mxCell>
                <mxCell id="5" style="edgeStyle=none;html=1;entryX=-0.006;entryY=0.111;entryDx=0;entryDy=0;entryPerimeter=0;exitX=1;exitY=0;exitDx=0;exitDy=0;" edge="1" parent="1" source="2" target="Oh7va8Yr2xT_aRUrp2eI-3">
                    <mxGeometry relative="1" as="geometry"/>
                </mxCell>
                <mxCell id="2" value="User" style="swimlane;fontStyle=1;align=center;verticalAlign=top;childLayout=stackLayout;horizontal=1;startSize=26;horizontalStack=0;resizeParent=1;resizeParentMax=0;resizeLast=0;collapsible=1;marginBottom=0;" vertex="1" parent="1">
                    <mxGeometry x="30" y="540" width="160" height="180" as="geometry"/>
                </mxCell>
                <mxCell id="3" value="+ ID: ID&#10;+ Loginname: String&#10;+ Password: String &#10;+ userID: studentID/&#10;                employeeID" style="text;strokeColor=none;fillColor=none;align=left;verticalAlign=top;spacingLeft=4;spacingRight=4;overflow=hidden;rotatable=0;points=[[0,0.5],[1,0.5]];portConstraint=eastwest;" vertex="1" parent="2">
                    <mxGeometry y="26" width="160" height="154" as="geometry"/>
                </mxCell>
            </root>
        </mxGraphModel>
    </diagram>
</mxfile>